# xmcd CD database file
#
# Track frame offsets:
#	150
#	56967
#	94682
#	156858
#
# Disc length: 3029 seconds
#
# Revision: 0
# Processed by: cddbd v1.5.1PL2 Copyright (c) Steve Scherf et al.
# Submitted via: CDex 1.50beta10
#
DISCID=2e0bd304
DTITLE=Diallo - Spejlinger
DYEAR=2005
DGENRE=Jazz
TTITLE0=En Vægtløs Flugt
TTITLE1=En Dråbe Fanger Lyset
TTITLE2=En Vældig Kilde
TTITLE3=Et Sort-Hvid Billede Fyldt Af Farver
EXTD=YEAR: 2005
EXTT0=
EXTT1=
EXTT2=
EXTT3=
PLAYORDER=
